<svg aria-hidden="true" style="position: absolute; width: 0; height: 0; overflow: hidden;" version="1.1" xmlns="http://www.w3.org/2000/svg" xmlns:xlink="http://www.w3.org/1999/xlink">
<defs>
<symbol id="facebook" viewBox="0 0 32 32">
<title>facebook</title>
<path d="M30.234 0h-28.467c-0.976 0-1.766 0.79-1.766 1.766v28.469c0 0.974 0.79 1.765 1.766 1.765h15.328v-12.392h-4.173v-4.829h4.17v-3.563c0-4.133 2.525-6.384 6.213-6.384 1.766 0 3.283 0.131 3.726 0.19v4.32h-2.557c-2.006 0-2.394 0.955-2.394 2.352v3.085h4.782l-0.624 4.829h-4.16v12.392h8.157c0.973 0 1.763-0.79 1.763-1.766v-28.467c0.002-0.976-0.789-1.766-1.765-1.766z"></path>
</symbol>
<symbol id="instagram" viewBox="0 0 32 32">
<title>instagram</title>
<path d="M16 2.883c4.272 0 4.779 0.016 6.467 0.094 4.336 0.197 6.36 2.254 6.558 6.558 0.077 1.686 0.091 2.192 0.091 6.464 0 4.275-0.016 4.781-0.091 6.467-0.198 4.299-2.219 6.36-6.56 6.558-1.686 0.077-2.192 0.093-6.466 0.093-4.272 0-4.779-0.016-6.464-0.093-4.347-0.198-6.363-2.266-6.56-6.56-0.077-1.686-0.093-2.192-0.093-6.466 0-4.272 0.016-4.778 0.093-6.464 0.198-4.304 2.219-6.363 6.56-6.56 1.686-0.077 2.192-0.093 6.464-0.093zM16 0c-4.346 0-4.89 0.019-6.597 0.096-5.81 0.267-9.040 3.491-9.306 9.307-0.082 1.707-0.098 2.251-0.098 6.597s0.019 4.891 0.096 6.597c0.267 5.811 3.491 9.040 9.307 9.307 1.707 0.077 2.251 0.096 6.597 0.096s4.891-0.019 6.597-0.096c5.806-0.267 9.043-3.491 9.306-9.307 0.080-1.706 0.098-2.251 0.098-6.597s-0.019-4.89-0.096-6.595c-0.261-5.806-3.488-9.040-9.306-9.309-1.707-0.080-2.253-0.096-6.598-0.096zM16 7.784c-4.538 0-8.216 3.678-8.216 8.216s3.678 8.216 8.216 8.216v0c4.538 0 8.216-3.678 8.216-8.216s-3.678-8.216-8.216-8.216v0zM16 21.333c-2.945 0-5.333-2.388-5.333-5.333s2.388-5.333 5.333-5.333v0c2.945 0 5.333 2.388 5.333 5.333s-2.388 5.333-5.333 5.333v0zM24.541 5.541c-1.060 0-1.92 0.86-1.92 1.92s0.86 1.92 1.92 1.92v0c1.060 0 1.92-0.86 1.92-1.92s-0.86-1.92-1.92-1.92v0z"></path>
</symbol>
<symbol id="twitter" viewBox="0 0 38 32">
<title>twitter</title>
<path d="M37.647 4.088c-1.292 0.589-2.791 1.017-4.362 1.209l-0.074 0.007c1.598-0.966 2.8-2.452 3.382-4.218l0.016-0.055c-1.412 0.853-3.055 1.503-4.806 1.858l-0.099 0.017c-1.41-1.503-3.41-2.44-5.627-2.44-0.004 0-0.007 0-0.011 0h0.001c-4.988 0-8.651 4.653-7.526 9.481-6.434-0.331-12.093-3.387-15.888-8.027l-0.031-0.039c-0.657 1.113-1.045 2.452-1.045 3.882 0 2.669 1.352 5.022 3.408 6.412l0.027 0.017c-1.29-0.042-2.489-0.395-3.536-0.986l0.038 0.020c-0.085 3.576 2.481 6.925 6.195 7.671-0.608 0.172-1.307 0.271-2.029 0.271-0.516 0-1.021-0.050-1.508-0.147l0.049 0.008c1.016 3.093 3.85 5.298 7.208 5.363l0.008 0c-2.612 2.063-5.952 3.309-9.583 3.309-0.653 0-1.297-0.040-1.928-0.119l0.076 0.008c3.341 2.175 7.428 3.469 11.818 3.469 0.008 0 0.015 0 0.023 0h-0.001c14.34 0 22.443-12.111 21.954-22.974 1.517-1.106 2.795-2.431 3.818-3.943l0.035-0.056z"></path>
</symbol>
</defs>
</svg>
